<?xml version="1.0" encoding="UTF-8" standalone="no"?>
<!DOCTYPE svg PUBLIC "-//W3C//DTD SVG 1.1//EN" "http://www.w3.org/Graphics/SVG/1.1/DTD/svg11.dtd">
<svg width="100%" height="100%" viewBox="0 0 4416 1143" version="1.1" xmlns="http://www.w3.org/2000/svg" xmlns:xlink="http://www.w3.org/1999/xlink" xml:space="preserve" xmlns:serif="http://www.serif.com/" style="fill-rule:evenodd;clip-rule:evenodd;stroke-linejoin:round;stroke-miterlimit:2;">
    <g transform="matrix(1,0,0,1,-6669.47,-1478.68)">
        <g transform="matrix(5.28254,0,0,4.73081,-20036.7,2043.71)">
            <g transform="matrix(4.99252,0,0,5.57476,410.157,-3041.35)">
                <g transform="matrix(1,0,0,1,907.094,233.055)">
                    <path d="M187.854,315.606L145.38,308.382L148.323,291.078L190.798,298.304L187.854,315.606Z" style="fill:rgb(254,241,197);fill-rule:nonzero;"/>
                </g>
                <g transform="matrix(1,0,0,1,907.094,233.055)">
                    <path d="M155.737,310.144L145.38,308.382L148.323,291.078L158.681,292.84L155.737,310.144Z" style="fill:rgb(197,110,95);fill-rule:nonzero;"/>
                </g>
                <g transform="matrix(1,0,0,1,907.094,233.055)">
                    <path d="M169.551,297.801L159.926,296.163L160.146,294.867L169.771,296.505L169.551,297.801Z" style="fill:rgb(197,110,95);fill-rule:nonzero;"/>
                </g>
                <g transform="matrix(1,0,0,1,907.094,233.055)">
                    <path d="M169.198,299.873L159.573,298.236L159.794,296.94L169.419,298.578L169.198,299.873Z" style="fill:rgb(197,110,95);fill-rule:nonzero;"/>
                </g>
                <g transform="matrix(1,0,0,1,907.094,233.055)">
                    <path d="M165.447,306.567L158.361,305.362L158.581,304.066L165.668,305.272L165.447,306.567Z" style="fill:rgb(197,110,95);fill-rule:nonzero;"/>
                </g>
                <g transform="matrix(1,0,0,1,907.094,233.055)">
                    <path d="M165.116,308.511L158.03,307.306L158.251,306.01L165.337,307.216L165.116,308.511Z" style="fill:rgb(197,110,95);fill-rule:nonzero;"/>
                </g>
                <g transform="matrix(1,0,0,1,907.094,233.055)">
                    <path d="M164.786,310.455L157.699,309.249L157.92,307.953L165.007,309.159L164.786,310.455Z" style="fill:rgb(197,110,95);fill-rule:nonzero;"/>
                </g>
                <g transform="matrix(1,0,0,1,907.094,233.055)">
                    <path d="M178.597,303.561L159.228,300.266L159.448,298.971L178.817,302.265L178.597,303.561Z" style="fill:rgb(197,110,95);fill-rule:nonzero;"/>
                </g>
                <g transform="matrix(1,0,0,1,907.094,233.055)">
                    <path d="M182.463,313.173C180.471,312.834 179.131,310.944 179.47,308.953C179.809,306.961 181.697,305.621 183.689,305.96C185.681,306.299 187.021,308.188 186.683,310.18C186.344,312.172 184.454,313.512 182.463,313.173ZM183.726,305.744C181.615,305.385 179.612,306.806 179.254,308.916C178.895,311.027 180.314,313.029 182.426,313.389C184.537,313.748 186.539,312.327 186.898,310.217C187.257,308.105 185.837,306.104 183.726,305.744Z" style="fill:rgb(16,80,153);fill-rule:nonzero;"/>
                </g>
                <g transform="matrix(1,0,0,1,907.094,233.055)">
                    <path d="M182.586,312.447C180.995,312.177 179.925,310.668 180.195,309.076C180.466,307.485 181.975,306.415 183.566,306.686C185.157,306.956 186.228,308.466 185.957,310.057C185.687,311.647 184.177,312.718 182.586,312.447ZM183.596,306.513C181.909,306.227 180.31,307.36 180.022,309.047C179.735,310.733 180.87,312.333 182.557,312.62C184.243,312.907 185.843,311.772 186.129,310.086C186.416,308.399 185.281,306.8 183.596,306.513Z" style="fill:rgb(16,80,153);fill-rule:nonzero;"/>
                </g>
                <g transform="matrix(1,0,0,1,907.094,233.055)">
                    <path d="M184.689,309.118L184.521,309.028L184.61,308.859L184.779,308.949L184.689,309.118ZM184.209,309.264L184.04,309.174L184.13,309.006L184.299,309.096L184.209,309.264ZM183.728,309.41L183.56,309.32L183.649,309.151L183.817,309.241L183.728,309.41ZM183.247,309.557L183.078,309.467L183.169,309.298L183.337,309.388L183.247,309.557ZM182.767,309.703L182.598,309.612L182.688,309.444L182.856,309.534L182.767,309.703ZM185.418,308.742C185.337,308.477 184.662,308.562 183.714,308.85C183.579,308.891 183.426,308.94 183.265,308.996L182.783,308.782L182.673,308.781L182.44,308.853C182.347,308.88 182.306,308.959 182.364,308.997L182.618,309.229C182.256,309.368 181.896,309.52 181.615,309.66C181.305,309.479 181.235,309.141 181.025,309.188C180.816,309.234 180.852,309.367 180.895,309.51L181.1,310.185C181.144,310.327 181.186,310.44 181.327,310.397C181.327,310.397 182.188,310.253 183.102,310.039L183.038,311.211C183.02,311.307 183.109,311.387 183.202,311.358L183.436,311.288L183.521,311.205L183.989,309.811L184.248,309.732C185.411,309.362 185.499,309.008 185.418,308.742Z" style="fill:rgb(16,80,153);fill-rule:nonzero;"/>
                </g>
                <g transform="matrix(1,0,0,1,907.094,233.055)">
                    <path d="M178.476,311.76C177,311.509 176.007,310.108 176.258,308.633C176.509,307.156 177.909,306.163 179.386,306.414C180.861,306.665 181.854,308.065 181.604,309.542C181.353,311.019 179.952,312.011 178.476,311.76ZM179.413,306.254C177.848,305.988 176.364,307.041 176.098,308.605C175.832,310.17 176.884,311.654 178.449,311.92C180.014,312.187 181.497,311.134 181.764,309.569C182.03,308.005 180.978,306.521 179.413,306.254Z" style="fill:rgb(197,110,95);fill-rule:nonzero;"/>
                </g>
                <g transform="matrix(1,0,0,1,907.094,233.055)">
                    <path d="M178.567,311.223C177.388,311.021 176.595,309.903 176.796,308.724C176.996,307.545 178.114,306.751 179.294,306.952C180.474,307.152 181.267,308.271 181.066,309.45C180.865,310.63 179.747,311.423 178.567,311.223ZM179.315,306.824C178.065,306.611 176.88,307.452 176.668,308.702C176.455,309.952 177.296,311.138 178.546,311.351C179.796,311.563 180.981,310.722 181.193,309.472C181.406,308.223 180.565,307.037 179.315,306.824Z" style="fill:rgb(197,110,95);fill-rule:nonzero;"/>
                </g>
                <g transform="matrix(1,0,0,1,907.094,233.055)">
                    <path d="M180.312,307.928L180.231,307.984L178.209,307.641L178.151,307.56L178.232,307.503L180.255,307.847L180.312,307.928Z" style="fill:rgb(197,110,95);fill-rule:nonzero;"/>
                </g>
                <g transform="matrix(1,0,0,1,907.094,233.055)">
                    <path d="M180.715,308.696L180.622,308.762L177.456,308.224L177.391,308.131L177.482,308.065L180.649,308.604L180.715,308.696Z" style="fill:rgb(197,110,95);fill-rule:nonzero;"/>
                </g>
                <g transform="matrix(1,0,0,1,907.094,233.055)">
                    <path d="M180.27,309.102L180.194,309.155L177.552,308.705L177.499,308.631L177.573,308.578L180.217,309.027L180.27,309.102Z" style="fill:rgb(197,110,95);fill-rule:nonzero;"/>
                </g>
                <g transform="matrix(1,0,0,1,907.094,233.055)">
                    <path d="M178.125,309.315L178.071,309.354L177.441,309.246L177.403,309.192L177.457,309.154L178.087,309.262L178.125,309.315Z" style="fill:rgb(197,110,95);fill-rule:nonzero;"/>
                </g>
                <g transform="matrix(1,0,0,1,907.094,233.055)">
                    <path d="M178.088,309.534L178.022,309.58L177.412,309.477L177.366,309.411L177.432,309.364L178.041,309.469L178.088,309.534Z" style="fill:rgb(197,110,95);fill-rule:nonzero;"/>
                </g>
                <g transform="matrix(1,0,0,1,907.094,233.055)">
                    <path d="M180.031,310.283L179.883,310.389L177.585,309.997L177.479,309.849L177.629,309.743L179.926,310.134L180.031,310.283Z" style="fill:rgb(197,110,95);fill-rule:nonzero;"/>
                </g>
                <g>
                    <g transform="matrix(1,0,0,1,907.094,233.055)">
                        <path d="M179.857,304.754L179.757,304.736L180.139,302.49L180.239,302.507L179.857,304.754Z" style="fill:rgb(47,53,66);fill-rule:nonzero;"/>
                    </g>
                    <g transform="matrix(1,0,0,1,907.094,233.055)">
                        <path d="M180.01,304.779L179.909,304.763L180.291,302.516L180.392,302.533L180.01,304.779Z" style="fill:rgb(47,53,66);fill-rule:nonzero;"/>
                    </g>
                    <g transform="matrix(1,0,0,1,907.094,233.055)">
                        <path d="M180.259,304.242L180.157,304.225L180.443,302.542L180.545,302.559L180.259,304.242Z" style="fill:rgb(47,53,66);fill-rule:nonzero;"/>
                    </g>
                    <g transform="matrix(1,0,0,1,907.094,233.055)">
                        <path d="M180.314,304.832L180.214,304.814L180.596,302.567L180.697,302.585L180.314,304.832Z" style="fill:rgb(47,53,66);fill-rule:nonzero;"/>
                    </g>
                    <g transform="matrix(1,0,0,1,907.094,233.055)">
                        <path d="M180.563,304.294L180.462,304.276L180.749,302.594L180.85,302.61L180.563,304.294Z" style="fill:rgb(47,53,66);fill-rule:nonzero;"/>
                    </g>
                    <g transform="matrix(1,0,0,1,907.094,233.055)">
                        <path d="M180.647,304.724L180.546,304.706L180.901,302.619L181.002,302.637L180.647,304.724Z" style="fill:rgb(47,53,66);fill-rule:nonzero;"/>
                    </g>
                    <g transform="matrix(1,0,0,1,907.094,233.055)">
                        <path d="M180.868,304.346L180.768,304.328L181.054,302.646L181.154,302.663L180.868,304.346Z" style="fill:rgb(47,53,66);fill-rule:nonzero;"/>
                    </g>
                    <g transform="matrix(1,0,0,1,907.094,233.055)">
                        <path d="M180.925,304.936L180.824,304.918L181.206,302.672L181.307,302.688L180.925,304.936Z" style="fill:rgb(47,53,66);fill-rule:nonzero;"/>
                    </g>
                    <g transform="matrix(1,0,0,1,907.094,233.055)">
                        <path d="M181.173,304.397L181.072,304.381L181.358,302.697L181.46,302.715L181.173,304.397Z" style="fill:rgb(47,53,66);fill-rule:nonzero;"/>
                    </g>
                    <g transform="matrix(1,0,0,1,907.094,233.055)">
                        <path d="M181.41,303.927L181.31,303.91L181.511,302.724L181.612,302.74L181.41,303.927Z" style="fill:rgb(47,53,66);fill-rule:nonzero;"/>
                    </g>
                    <g transform="matrix(1,0,0,1,907.094,233.055)">
                        <path d="M181.382,305.013L181.281,304.996L181.663,302.749L181.765,302.767L181.382,305.013Z" style="fill:rgb(47,53,66);fill-rule:nonzero;"/>
                    </g>
                    <g transform="matrix(1,0,0,1,907.094,233.055)">
                        <path d="M181.631,304.476L181.529,304.458L181.816,302.775L181.917,302.792L181.631,304.476Z" style="fill:rgb(47,53,66);fill-rule:nonzero;"/>
                    </g>
                    <g transform="matrix(1,0,0,1,907.094,233.055)">
                        <path d="M181.688,305.065L181.586,305.048L181.969,302.801L182.069,302.818L181.688,305.065Z" style="fill:rgb(47,53,66);fill-rule:nonzero;"/>
                    </g>
                    <g transform="matrix(1,0,0,1,907.094,233.055)">
                        <path d="M181.892,304.788L181.79,304.771L182.121,302.827L182.222,302.845L181.892,304.788Z" style="fill:rgb(47,53,66);fill-rule:nonzero;"/>
                    </g>
                    <g transform="matrix(1,0,0,1,907.094,233.055)">
                        <path d="M182.02,304.957L181.919,304.939L182.273,302.854L182.374,302.87L182.02,304.957Z" style="fill:rgb(47,53,66);fill-rule:nonzero;"/>
                    </g>
                    <g transform="matrix(1,0,0,1,907.094,233.055)">
                        <path d="M182.145,305.143L182.044,305.126L182.426,302.879L182.527,302.896L182.145,305.143Z" style="fill:rgb(47,53,66);fill-rule:nonzero;"/>
                    </g>
                    <g transform="matrix(1,0,0,1,907.094,233.055)">
                        <path d="M182.429,304.395L182.328,304.378L182.578,302.905L182.68,302.922L182.429,304.395Z" style="fill:rgb(47,53,66);fill-rule:nonzero;"/>
                    </g>
                    <g transform="matrix(1,0,0,1,907.094,233.055)">
                        <path d="M182.45,305.194L182.349,305.178L182.731,302.931L182.832,302.948L182.45,305.194Z" style="fill:rgb(47,53,66);fill-rule:nonzero;"/>
                    </g>
                    <g transform="matrix(1,0,0,1,907.094,233.055)">
                        <path d="M182.603,305.221L182.501,305.203L182.884,302.957L182.984,302.974L182.603,305.221Z" style="fill:rgb(47,53,66);fill-rule:nonzero;"/>
                    </g>
                    <g transform="matrix(1,0,0,1,907.094,233.055)">
                        <path d="M182.851,304.683L182.75,304.666L183.036,302.982L183.137,303L182.851,304.683Z" style="fill:rgb(47,53,66);fill-rule:nonzero;"/>
                    </g>
                    <g transform="matrix(1,0,0,1,907.094,233.055)">
                        <path d="M182.907,305.272L182.807,305.256L183.188,303.009L183.289,303.025L182.907,305.272Z" style="fill:rgb(47,53,66);fill-rule:nonzero;"/>
                    </g>
                    <g transform="matrix(1,0,0,1,907.094,233.055)">
                        <path d="M183.155,304.734L183.055,304.718L183.341,303.034L183.442,303.052L183.155,304.734Z" style="fill:rgb(47,53,66);fill-rule:nonzero;"/>
                    </g>
                    <g transform="matrix(1,0,0,1,907.094,233.055)">
                        <path d="M183.264,305.021L183.163,305.004L183.493,303.061L183.595,303.078L183.264,305.021Z" style="fill:rgb(47,53,66);fill-rule:nonzero;"/>
                    </g>
                    <g transform="matrix(1,0,0,1,907.094,233.055)">
                        <path d="M183.364,305.351L183.264,305.333L183.646,303.087L183.747,303.104L183.364,305.351Z" style="fill:rgb(47,53,66);fill-rule:nonzero;"/>
                    </g>
                    <g transform="matrix(1,0,0,1,907.094,233.055)">
                        <path d="M183.545,305.217L183.443,305.199L183.799,303.112L183.899,303.13L183.545,305.217Z" style="fill:rgb(47,53,66);fill-rule:nonzero;"/>
                    </g>
                    <g transform="matrix(1,0,0,1,907.094,233.055)">
                        <path d="M183.85,304.342L183.749,304.325L183.951,303.139L184.052,303.155L183.85,304.342Z" style="fill:rgb(47,53,66);fill-rule:nonzero;"/>
                    </g>
                    <g transform="matrix(1,0,0,1,907.094,233.055)">
                        <path d="M183.822,305.429L183.722,305.411L184.104,303.164L184.204,303.182L183.822,305.429Z" style="fill:rgb(47,53,66);fill-rule:nonzero;"/>
                    </g>
                    <g transform="matrix(1,0,0,1,907.094,233.055)">
                        <path d="M183.975,305.454L183.874,305.437L184.256,303.19L184.356,303.207L183.975,305.454Z" style="fill:rgb(47,53,66);fill-rule:nonzero;"/>
                    </g>
                    <g transform="matrix(1,0,0,1,907.094,233.055)">
                        <path d="M184.259,304.706L184.158,304.688L184.408,303.216L184.51,303.233L184.259,304.706Z" style="fill:rgb(47,53,66);fill-rule:nonzero;"/>
                    </g>
                    <g transform="matrix(1,0,0,1,907.094,233.055)">
                        <path d="M184.279,305.506L184.179,305.489L184.561,303.242L184.662,303.26L184.279,305.506Z" style="fill:rgb(47,53,66);fill-rule:nonzero;"/>
                    </g>
                    <g transform="matrix(1,0,0,1,907.094,233.055)">
                        <path d="M184.483,305.229L184.383,305.212L184.713,303.269L184.814,303.285L184.483,305.229Z" style="fill:rgb(47,53,66);fill-rule:nonzero;"/>
                    </g>
                    <g transform="matrix(1,0,0,1,907.094,233.055)">
                        <path d="M184.585,305.558L184.483,305.541L184.866,303.294L184.967,303.312L184.585,305.558Z" style="fill:rgb(47,53,66);fill-rule:nonzero;"/>
                    </g>
                    <g transform="matrix(1,0,0,1,907.094,233.055)">
                        <path d="M184.869,304.81L184.768,304.793L185.019,303.32L185.119,303.337L184.869,304.81Z" style="fill:rgb(47,53,66);fill-rule:nonzero;"/>
                    </g>
                    <g transform="matrix(1,0,0,1,907.094,233.055)">
                        <path d="M184.917,305.45L184.815,305.433L185.171,303.346L185.271,303.363L184.917,305.45Z" style="fill:rgb(47,53,66);fill-rule:nonzero;"/>
                    </g>
                    <g transform="matrix(1,0,0,1,907.094,233.055)">
                        <path d="M185.094,305.333L184.992,305.315L185.323,303.372L185.425,303.389L185.094,305.333Z" style="fill:rgb(47,53,66);fill-rule:nonzero;"/>
                    </g>
                    <g transform="matrix(1,0,0,1,907.094,233.055)">
                        <path d="M185.194,305.662L185.094,305.645L185.476,303.397L185.577,303.415L185.194,305.662Z" style="fill:rgb(47,53,66);fill-rule:nonzero;"/>
                    </g>
                    <g transform="matrix(1,0,0,1,907.094,233.055)">
                        <path d="M185.443,305.124L185.342,305.106L185.628,303.424L185.729,303.44L185.443,305.124Z" style="fill:rgb(47,53,66);fill-rule:nonzero;"/>
                    </g>
                    <g transform="matrix(1,0,0,1,907.094,233.055)">
                        <path d="M185.5,305.714L185.398,305.696L185.781,303.449L185.882,303.467L185.5,305.714Z" style="fill:rgb(47,53,66);fill-rule:nonzero;"/>
                    </g>
                    <g transform="matrix(1,0,0,1,907.094,233.055)">
                        <path d="M185.68,305.58L185.578,305.563L185.934,303.476L186.034,303.493L185.68,305.58Z" style="fill:rgb(47,53,66);fill-rule:nonzero;"/>
                    </g>
                    <g transform="matrix(1,0,0,1,907.094,233.055)">
                        <path d="M185.9,305.202L185.8,305.185L186.086,303.502L186.187,303.519L185.9,305.202Z" style="fill:rgb(47,53,66);fill-rule:nonzero;"/>
                    </g>
                    <g transform="matrix(1,0,0,1,907.094,233.055)">
                        <path d="M185.957,305.791L185.856,305.774L186.238,303.527L186.339,303.545L185.957,305.791Z" style="fill:rgb(47,53,66);fill-rule:nonzero;"/>
                    </g>
                    <g transform="matrix(1,0,0,1,907.094,233.055)">
                        <path d="M186.241,305.043L186.141,305.026L186.391,303.554L186.492,303.57L186.241,305.043Z" style="fill:rgb(47,53,66);fill-rule:nonzero;"/>
                    </g>
                    <g transform="matrix(1,0,0,1,907.094,233.055)">
                        <path d="M186.262,305.843L186.161,305.826L186.543,303.579L186.645,303.597L186.262,305.843Z" style="fill:rgb(47,53,66);fill-rule:nonzero;"/>
                    </g>
                    <g transform="matrix(1,0,0,1,907.094,233.055)">
                        <path d="M186.466,305.566L186.365,305.549L186.695,303.605L186.797,303.622L186.466,305.566Z" style="fill:rgb(47,53,66);fill-rule:nonzero;"/>
                    </g>
                    <g transform="matrix(1,0,0,1,907.094,233.055)">
                        <path d="M186.567,305.896L186.466,305.878L186.849,303.631L186.949,303.648L186.567,305.896Z" style="fill:rgb(47,53,66);fill-rule:nonzero;"/>
                    </g>
                    <g transform="matrix(1,0,0,1,907.094,233.055)">
                        <path d="M186.747,305.762L186.646,305.744L187.001,303.657L187.102,303.675L186.747,305.762Z" style="fill:rgb(47,53,66);fill-rule:nonzero;"/>
                    </g>
                    <g transform="matrix(1,0,0,1,907.094,233.055)">
                        <path d="M187.053,304.887L186.951,304.869L187.153,303.684L187.254,303.7L187.053,304.887Z" style="fill:rgb(47,53,66);fill-rule:nonzero;"/>
                    </g>
                    <g transform="matrix(1,0,0,1,907.094,233.055)">
                        <path d="M187.024,305.973L186.924,305.956L187.306,303.709L187.407,303.727L187.024,305.973Z" style="fill:rgb(47,53,66);fill-rule:nonzero;"/>
                    </g>
                    <g transform="matrix(1,0,0,1,907.094,233.055)">
                        <path d="M187.309,305.225L187.208,305.208L187.458,303.735L187.56,303.752L187.309,305.225Z" style="fill:rgb(47,53,66);fill-rule:nonzero;"/>
                    </g>
                    <g transform="matrix(1,0,0,1,907.094,233.055)">
                        <path d="M187.329,306.024L187.229,306.008L187.61,303.761L187.712,303.778L187.329,306.024Z" style="fill:rgb(47,53,66);fill-rule:nonzero;"/>
                    </g>
                    <g transform="matrix(1,0,0,1,907.094,233.055)">
                        <path d="M187.578,305.487L187.477,305.47L187.764,303.787L187.864,303.804L187.578,305.487Z" style="fill:rgb(47,53,66);fill-rule:nonzero;"/>
                    </g>
                    <g transform="matrix(1,0,0,1,907.094,233.055)">
                        <path d="M159.766,301.729C159.729,301.94 159.529,302.082 159.318,302.047C159.107,302.011 158.965,301.811 159.001,301.6C159.037,301.388 159.237,301.246 159.448,301.282C159.659,301.318 159.802,301.519 159.766,301.729Z" style="fill:rgb(47,53,66);fill-rule:nonzero;"/>
                    </g>
                    <g transform="matrix(1,0,0,1,907.094,233.055)">
                        <path d="M160.73,301.894C160.694,302.104 160.494,302.247 160.283,302.211C160.072,302.175 159.931,301.975 159.966,301.764C160.002,301.553 160.202,301.41 160.413,301.446C160.624,301.482 160.767,301.683 160.73,301.894Z" style="fill:rgb(47,53,66);fill-rule:nonzero;"/>
                    </g>
                    <g transform="matrix(1,0,0,1,907.094,233.055)">
                        <path d="M161.696,302.058C161.66,302.269 161.46,302.411 161.249,302.375C161.037,302.339 160.896,302.139 160.932,301.928C160.968,301.717 161.168,301.574 161.379,301.61C161.59,301.646 161.731,301.847 161.696,302.058Z" style="fill:rgb(47,53,66);fill-rule:nonzero;"/>
                    </g>
                    <g transform="matrix(1,0,0,1,907.094,233.055)">
                        <path d="M162.661,302.222C162.625,302.433 162.425,302.575 162.214,302.539C162.003,302.503 161.86,302.303 161.896,302.092C161.933,301.881 162.133,301.738 162.344,301.774C162.555,301.811 162.697,302.011 162.661,302.222Z" style="fill:rgb(47,53,66);fill-rule:nonzero;"/>
                    </g>
                    <g transform="matrix(1,0,0,1,907.094,233.055)">
                        <path d="M163.626,302.386C163.591,302.597 163.391,302.739 163.179,302.703C162.968,302.667 162.826,302.467 162.862,302.256C162.897,302.045 163.098,301.903 163.31,301.938C163.521,301.975 163.662,302.175 163.626,302.386Z" style="fill:rgb(47,53,66);fill-rule:nonzero;"/>
                    </g>
                    <g transform="matrix(1,0,0,1,907.094,233.055)">
                        <path d="M164.592,302.55C164.556,302.762 164.355,302.903 164.145,302.867C163.934,302.832 163.791,302.631 163.827,302.42C163.863,302.209 164.063,302.067 164.274,302.103C164.485,302.139 164.627,302.339 164.592,302.55Z" style="fill:rgb(47,53,66);fill-rule:nonzero;"/>
                    </g>
                    <g transform="matrix(1,0,0,1,907.094,233.055)">
                        <path d="M165.557,302.715C165.521,302.926 165.32,303.067 165.109,303.031C164.898,302.996 164.757,302.796 164.792,302.584C164.828,302.373 165.028,302.231 165.239,302.268C165.45,302.303 165.593,302.503 165.557,302.715Z" style="fill:rgb(47,53,66);fill-rule:nonzero;"/>
                    </g>
                    <g transform="matrix(1,0,0,1,907.094,233.055)">
                        <path d="M166.522,302.879C166.486,303.09 166.286,303.231 166.074,303.196C165.863,303.16 165.722,302.96 165.758,302.749C165.793,302.537 165.994,302.396 166.205,302.432C166.416,302.467 166.558,302.668 166.522,302.879Z" style="fill:rgb(47,53,66);fill-rule:nonzero;"/>
                    </g>
                    <g transform="matrix(1,0,0,1,907.094,233.055)">
                        <path d="M167.487,303.043C167.451,303.254 167.251,303.396 167.04,303.36C166.829,303.324 166.687,303.124 166.723,302.913C166.759,302.702 166.959,302.56 167.17,302.596C167.381,302.632 167.523,302.832 167.487,303.043Z" style="fill:rgb(47,53,66);fill-rule:nonzero;"/>
                    </g>
                    <g transform="matrix(1,0,0,1,907.094,233.055)">
                        <path d="M168.452,303.207C168.417,303.418 168.216,303.561 168.005,303.524C167.794,303.488 167.652,303.288 167.688,303.077C167.724,302.866 167.924,302.724 168.135,302.76C168.347,302.796 168.488,302.996 168.452,303.207Z" style="fill:rgb(47,53,66);fill-rule:nonzero;"/>
                    </g>
                    <g transform="matrix(1,0,0,1,907.094,233.055)">
                        <path d="M169.418,303.371C169.382,303.582 169.182,303.725 168.971,303.688C168.76,303.652 168.617,303.452 168.653,303.241C168.689,303.03 168.89,302.888 169.101,302.924C169.312,302.96 169.453,303.16 169.418,303.371Z" style="fill:rgb(47,53,66);fill-rule:nonzero;"/>
                    </g>
                    <g transform="matrix(1,0,0,1,907.094,233.055)">
                        <path d="M170.383,303.535C170.347,303.746 170.146,303.889 169.936,303.853C169.725,303.816 169.583,303.616 169.618,303.405C169.654,303.194 169.854,303.052 170.065,303.088C170.276,303.124 170.419,303.324 170.383,303.535Z" style="fill:rgb(47,53,66);fill-rule:nonzero;"/>
                    </g>
                    <g transform="matrix(1,0,0,1,907.094,233.055)">
                        <path d="M171.348,303.699C171.313,303.911 171.112,304.053 170.9,304.017C170.689,303.98 170.548,303.78 170.584,303.569C170.619,303.358 170.819,303.217 171.031,303.252C171.242,303.288 171.384,303.488 171.348,303.699Z" style="fill:rgb(47,53,66);fill-rule:nonzero;"/>
                    </g>
                    <g transform="matrix(1,0,0,1,907.094,233.055)">
                        <path d="M172.313,303.864C172.277,304.075 172.077,304.217 171.866,304.181C171.655,304.146 171.513,303.945 171.549,303.733C171.585,303.522 171.785,303.381 171.996,303.417C172.207,303.452 172.35,303.652 172.313,303.864Z" style="fill:rgb(47,53,66);fill-rule:nonzero;"/>
                    </g>
                    <g transform="matrix(1,0,0,1,907.094,233.055)">
                        <path d="M173.278,304.028C173.242,304.239 173.042,304.381 172.831,304.345C172.62,304.31 172.479,304.109 172.514,303.898C172.55,303.687 172.75,303.545 172.961,303.581C173.173,303.616 173.314,303.816 173.278,304.028Z" style="fill:rgb(47,53,66);fill-rule:nonzero;"/>
                    </g>
                    <g transform="matrix(1,0,0,1,907.094,233.055)">
                        <path d="M174.244,304.192C174.208,304.403 174.008,304.545 173.797,304.51C173.585,304.474 173.443,304.273 173.479,304.063C173.516,303.851 173.716,303.709 173.927,303.745C174.138,303.781 174.279,303.981 174.244,304.192Z" style="fill:rgb(47,53,66);fill-rule:nonzero;"/>
                    </g>
                    <g transform="matrix(1,0,0,1,907.094,233.055)">
                        <path d="M159.564,302.909C159.528,303.121 159.328,303.263 159.117,303.227C158.906,303.19 158.765,302.99 158.8,302.779C158.836,302.568 159.036,302.427 159.247,302.462C159.459,302.498 159.601,302.698 159.564,302.909Z" style="fill:rgb(47,53,66);fill-rule:nonzero;"/>
                    </g>
                    <g transform="matrix(1,0,0,1,907.094,233.055)">
                        <path d="M160.53,303.074C160.494,303.285 160.294,303.427 160.083,303.391C159.871,303.355 159.729,303.155 159.766,302.943C159.802,302.732 160.002,302.591 160.213,302.627C160.424,302.662 160.565,302.862 160.53,303.074Z" style="fill:rgb(47,53,66);fill-rule:nonzero;"/>
                    </g>
                    <g transform="matrix(1,0,0,1,907.094,233.055)">
                        <path d="M161.495,303.238C161.459,303.449 161.259,303.591 161.048,303.556C160.837,303.52 160.694,303.319 160.73,303.107C160.767,302.896 160.967,302.755 161.178,302.791C161.389,302.826 161.531,303.027 161.495,303.238Z" style="fill:rgb(47,53,66);fill-rule:nonzero;"/>
                    </g>
                    <g transform="matrix(1,0,0,1,907.094,233.055)">
                        <path d="M162.46,303.402C162.425,303.613 162.225,303.755 162.013,303.72C161.802,303.684 161.66,303.483 161.696,303.272C161.731,303.061 161.932,302.919 162.144,302.955C162.354,302.991 162.496,303.191 162.46,303.402Z" style="fill:rgb(47,53,66);fill-rule:nonzero;"/>
                    </g>
                    <g transform="matrix(1,0,0,1,907.094,233.055)">
                        <path d="M163.426,303.566C163.39,303.777 163.189,303.92 162.979,303.884C162.768,303.848 162.625,303.647 162.661,303.437C162.697,303.226 162.897,303.083 163.108,303.119C163.319,303.155 163.461,303.355 163.426,303.566Z" style="fill:rgb(47,53,66);fill-rule:nonzero;"/>
                    </g>
                    <g transform="matrix(1,0,0,1,907.094,233.055)">
                        <path d="M164.391,303.73C164.354,303.941 164.154,304.084 163.943,304.048C163.732,304.012 163.591,303.812 163.626,303.601C163.662,303.39 163.862,303.247 164.073,303.283C164.285,303.319 164.427,303.52 164.391,303.73Z" style="fill:rgb(47,53,66);fill-rule:nonzero;"/>
                    </g>
                    <g transform="matrix(1,0,0,1,907.094,233.055)">
                        <path d="M165.355,303.895C165.32,304.105 165.12,304.248 164.909,304.212C164.697,304.176 164.556,303.976 164.592,303.765C164.627,303.554 164.828,303.411 165.039,303.447C165.25,303.483 165.392,303.684 165.355,303.895Z" style="fill:rgb(47,53,66);fill-rule:nonzero;"/>
                    </g>
                    <g transform="matrix(1,0,0,1,907.094,233.055)">
                        <path d="M166.321,304.059C166.285,304.271 166.085,304.412 165.874,304.376C165.663,304.34 165.521,304.14 165.557,303.929C165.593,303.718 165.793,303.576 166.004,303.611C166.215,303.647 166.357,303.848 166.321,304.059Z" style="fill:rgb(47,53,66);fill-rule:nonzero;"/>
                    </g>
                    <g transform="matrix(1,0,0,1,907.094,233.055)">
                        <path d="M167.286,304.223C167.251,304.435 167.05,304.576 166.839,304.54C166.628,304.505 166.486,304.304 166.521,304.093C166.558,303.882 166.758,303.74 166.969,303.775C167.181,303.812 167.322,304.012 167.286,304.223Z" style="fill:rgb(47,53,66);fill-rule:nonzero;"/>
                    </g>
                    <g transform="matrix(1,0,0,1,907.094,233.055)">
                        <path d="M168.252,304.388C168.216,304.599 168.016,304.74 167.805,304.704C167.594,304.669 167.451,304.469 167.487,304.257C167.523,304.046 167.724,303.904 167.935,303.94C168.146,303.976 168.287,304.176 168.252,304.388Z" style="fill:rgb(47,53,66);fill-rule:nonzero;"/>
                    </g>
                    <g transform="matrix(1,0,0,1,907.094,233.055)">
                        <path d="M169.217,304.552C169.181,304.763 168.98,304.904 168.77,304.869C168.559,304.833 168.416,304.633 168.452,304.422C168.488,304.21 168.688,304.068 168.899,304.104C169.11,304.14 169.253,304.341 169.217,304.552Z" style="fill:rgb(47,53,66);fill-rule:nonzero;"/>
                    </g>
                    <g transform="matrix(1,0,0,1,907.094,233.055)">
                        <path d="M170.182,304.716C170.146,304.927 169.946,305.068 169.734,305.033C169.523,304.997 169.382,304.797 169.418,304.586C169.453,304.375 169.653,304.232 169.865,304.269C170.076,304.305 170.218,304.505 170.182,304.716Z" style="fill:rgb(47,53,66);fill-rule:nonzero;"/>
                    </g>
                    <g transform="matrix(1,0,0,1,907.094,233.055)">
                        <path d="M171.147,304.88C171.111,305.091 170.911,305.233 170.7,305.197C170.489,305.161 170.347,304.961 170.383,304.75C170.419,304.539 170.619,304.396 170.83,304.433C171.041,304.469 171.184,304.669 171.147,304.88Z" style="fill:rgb(47,53,66);fill-rule:nonzero;"/>
                    </g>
                    <g transform="matrix(1,0,0,1,907.094,233.055)">
                        <path d="M172.112,305.044C172.076,305.255 171.876,305.397 171.665,305.361C171.454,305.325 171.313,305.125 171.348,304.914C171.384,304.703 171.584,304.561 171.795,304.597C172.007,304.633 172.148,304.833 172.112,305.044Z" style="fill:rgb(47,53,66);fill-rule:nonzero;"/>
                    </g>
                    <g transform="matrix(1,0,0,1,907.094,233.055)">
                        <path d="M173.078,305.208C173.042,305.419 172.842,305.562 172.631,305.525C172.419,305.489 172.277,305.289 172.313,305.078C172.35,304.867 172.55,304.725 172.761,304.761C172.972,304.797 173.113,304.997 173.078,305.208Z" style="fill:rgb(47,53,66);fill-rule:nonzero;"/>
                    </g>
                    <g transform="matrix(1,0,0,1,907.094,233.055)">
                        <path d="M174.043,305.372C174.007,305.584 173.807,305.726 173.596,305.689C173.385,305.653 173.242,305.453 173.278,305.242C173.314,305.031 173.515,304.89 173.726,304.925C173.937,304.961 174.079,305.161 174.043,305.372Z" style="fill:rgb(47,53,66);fill-rule:nonzero;"/>
                    </g>
                    <g transform="matrix(1,0,0,1,907.094,233.055)">
                        <path d="M167.923,306.322C167.887,306.533 167.687,306.676 167.476,306.64C167.264,306.604 167.122,306.403 167.158,306.192C167.194,305.981 167.395,305.839 167.605,305.875C167.816,305.911 167.958,306.111 167.923,306.322Z" style="fill:rgb(47,53,66);fill-rule:nonzero;"/>
                    </g>
                    <g transform="matrix(1,0,0,1,907.094,233.055)">
                        <path d="M168.888,306.486C168.852,306.697 168.651,306.84 168.44,306.804C168.229,306.768 168.087,306.567 168.123,306.356C168.159,306.146 168.359,306.003 168.57,306.039C168.781,306.075 168.924,306.275 168.888,306.486Z" style="fill:rgb(47,53,66);fill-rule:nonzero;"/>
                    </g>
                    <g transform="matrix(1,0,0,1,907.094,233.055)">
                        <path d="M169.853,306.65C169.817,306.861 169.617,307.004 169.405,306.968C169.194,306.932 169.053,306.731 169.089,306.521C169.124,306.31 169.324,306.167 169.536,306.203C169.747,306.239 169.889,306.439 169.853,306.65Z" style="fill:rgb(47,53,66);fill-rule:nonzero;"/>
                    </g>
                    <g transform="matrix(1,0,0,1,907.094,233.055)">
                        <path d="M170.818,306.814C170.782,307.025 170.582,307.168 170.371,307.132C170.16,307.096 170.018,306.896 170.054,306.685C170.09,306.474 170.29,306.332 170.501,306.367C170.712,306.403 170.854,306.604 170.818,306.814Z" style="fill:rgb(47,53,66);fill-rule:nonzero;"/>
                    </g>
                    <g transform="matrix(1,0,0,1,907.094,233.055)">
                        <path d="M171.783,306.979C171.747,307.19 171.547,307.332 171.336,307.296C171.125,307.26 170.983,307.06 171.019,306.849C171.055,306.638 171.255,306.496 171.466,306.531C171.678,306.567 171.819,306.768 171.783,306.979Z" style="fill:rgb(47,53,66);fill-rule:nonzero;"/>
                    </g>
                    <g transform="matrix(1,0,0,1,907.094,233.055)">
                        <path d="M172.749,307.144C172.713,307.354 172.513,307.496 172.302,307.46C172.09,307.425 171.948,307.225 171.984,307.013C172.021,306.802 172.221,306.66 172.432,306.696C172.643,306.731 172.784,306.932 172.749,307.144Z" style="fill:rgb(47,53,66);fill-rule:nonzero;"/>
                    </g>
                    <g transform="matrix(1,0,0,1,907.094,233.055)">
                        <path d="M173.714,307.308C173.678,307.519 173.478,307.66 173.267,307.625C173.056,307.589 172.913,307.389 172.949,307.178C172.985,306.966 173.186,306.824 173.396,306.86C173.607,306.896 173.75,307.097 173.714,307.308Z" style="fill:rgb(47,53,66);fill-rule:nonzero;"/>
                    </g>
                    <g transform="matrix(1,0,0,1,907.094,233.055)">
                        <path d="M167.608,308.17C167.572,308.381 167.372,308.522 167.161,308.486C166.95,308.451 166.808,308.251 166.844,308.039C166.88,307.828 167.08,307.687 167.291,307.723C167.502,307.758 167.645,307.959 167.608,308.17Z" style="fill:rgb(47,53,66);fill-rule:nonzero;"/>
                    </g>
                    <g transform="matrix(1,0,0,1,907.094,233.055)">
                        <path d="M168.573,308.334C168.537,308.545 168.337,308.687 168.126,308.651C167.915,308.615 167.773,308.415 167.809,308.204C167.845,307.992 168.045,307.851 168.256,307.887C168.468,307.923 168.609,308.123 168.573,308.334Z" style="fill:rgb(47,53,66);fill-rule:nonzero;"/>
                    </g>
                    <g transform="matrix(1,0,0,1,907.094,233.055)">
                        <path d="M169.539,308.498C169.503,308.709 169.303,308.851 169.092,308.815C168.88,308.779 168.738,308.579 168.774,308.368C168.811,308.157 169.011,308.015 169.222,308.051C169.433,308.087 169.574,308.287 169.539,308.498Z" style="fill:rgb(47,53,66);fill-rule:nonzero;"/>
                    </g>
                    <g transform="matrix(1,0,0,1,907.094,233.055)">
                        <path d="M170.504,308.662C170.468,308.873 170.268,309.016 170.057,308.979C169.846,308.943 169.703,308.743 169.739,308.532C169.775,308.321 169.976,308.179 170.187,308.215C170.397,308.251 170.54,308.451 170.504,308.662Z" style="fill:rgb(47,53,66);fill-rule:nonzero;"/>
                    </g>
                    <g transform="matrix(1,0,0,1,907.094,233.055)">
                        <path d="M171.469,308.826C171.434,309.037 171.233,309.18 171.021,309.144C170.811,309.107 170.669,308.907 170.705,308.696C170.74,308.485 170.94,308.343 171.152,308.379C171.363,308.415 171.505,308.615 171.469,308.826Z" style="fill:rgb(47,53,66);fill-rule:nonzero;"/>
                    </g>
                    <g transform="matrix(1,0,0,1,907.094,233.055)">
                        <path d="M172.435,308.99C172.398,309.201 172.198,309.344 171.987,309.308C171.776,309.271 171.634,309.071 171.67,308.86C171.706,308.649 171.906,308.508 172.117,308.543C172.328,308.579 172.471,308.779 172.435,308.99Z" style="fill:rgb(47,53,66);fill-rule:nonzero;"/>
                    </g>
                    <g transform="matrix(1,0,0,1,907.094,233.055)">
                        <path d="M173.399,309.154C173.363,309.366 173.163,309.508 172.952,309.472C172.741,309.436 172.6,309.235 172.635,309.024C172.671,308.813 172.871,308.672 173.082,308.707C173.294,308.743 173.436,308.943 173.399,309.154Z" style="fill:rgb(47,53,66);fill-rule:nonzero;"/>
                    </g>
                    <g transform="matrix(1,0,0,1,907.094,233.055)">
                        <path d="M167.294,310.017C167.258,310.229 167.058,310.37 166.847,310.334C166.636,310.298 166.493,310.098 166.529,309.887C166.565,309.676 166.766,309.534 166.977,309.569C167.188,309.605 167.33,309.806 167.294,310.017Z" style="fill:rgb(47,53,66);fill-rule:nonzero;"/>
                    </g>
                    <g transform="matrix(1,0,0,1,907.094,233.055)">
                        <path d="M168.259,310.182C168.224,310.393 168.023,310.534 167.812,310.498C167.601,310.463 167.459,310.263 167.495,310.051C167.53,309.84 167.73,309.698 167.942,309.734C168.153,309.77 168.295,309.97 168.259,310.182Z" style="fill:rgb(47,53,66);fill-rule:nonzero;"/>
                    </g>
                    <g transform="matrix(1,0,0,1,907.094,233.055)">
                        <path d="M169.225,310.346C169.188,310.557 168.988,310.698 168.777,310.662C168.566,310.627 168.424,310.427 168.46,310.216C168.496,310.004 168.696,309.862 168.907,309.898C169.118,309.934 169.261,310.134 169.225,310.346Z" style="fill:rgb(47,53,66);fill-rule:nonzero;"/>
                    </g>
                    <g transform="matrix(1,0,0,1,907.094,233.055)">
                        <path d="M170.189,310.51C170.153,310.721 169.953,310.862 169.742,310.827C169.531,310.791 169.39,310.591 169.425,310.38C169.461,310.168 169.661,310.026 169.872,310.063C170.084,310.099 170.226,310.299 170.189,310.51Z" style="fill:rgb(47,53,66);fill-rule:nonzero;"/>
                    </g>
                    <g transform="matrix(1,0,0,1,907.094,233.055)">
                        <path d="M171.155,310.674C171.119,310.885 170.919,311.027 170.708,310.991C170.496,310.955 170.354,310.755 170.391,310.544C170.427,310.333 170.627,310.19 170.838,310.227C171.049,310.263 171.19,310.463 171.155,310.674Z" style="fill:rgb(47,53,66);fill-rule:nonzero;"/>
                    </g>
                    <g transform="matrix(1,0,0,1,907.094,233.055)">
                        <path d="M172.12,310.838C172.084,311.049 171.884,311.191 171.673,311.155C171.462,311.119 171.319,310.919 171.355,310.708C171.392,310.497 171.592,310.354 171.803,310.391C172.014,310.427 172.156,310.627 172.12,310.838Z" style="fill:rgb(47,53,66);fill-rule:nonzero;"/>
                    </g>
                    <g transform="matrix(1,0,0,1,907.094,233.055)">
                        <path d="M173.085,311.002C173.05,311.213 172.85,311.355 172.638,311.319C172.427,311.283 172.285,311.083 172.321,310.872C172.356,310.661 172.557,310.519 172.769,310.555C172.979,310.591 173.121,310.791 173.085,311.002Z" style="fill:rgb(47,53,66);fill-rule:nonzero;"/>
                    </g>
                </g>
                <g transform="matrix(1,0,0,1,907.094,233.055)">
                    <path d="M174.205,299.102C174.189,299.193 174.103,299.256 174.011,299.24L173.292,299.117C173.2,299.102 173.138,299.015 173.153,298.923L173.431,297.298C173.446,297.206 173.533,297.145 173.624,297.16L174.344,297.282C174.436,297.298 174.497,297.385 174.481,297.477L174.205,299.102Z" style="fill:white;fill-rule:nonzero;"/>
                </g>
                <g transform="matrix(1,0,0,1,907.094,233.055)">
                    <path d="M175.609,299.341C175.595,299.433 175.508,299.494 175.416,299.479L174.696,299.356C174.604,299.341 174.543,299.254 174.559,299.162L174.835,297.537C174.851,297.445 174.938,297.384 175.029,297.399L175.749,297.521C175.84,297.537 175.902,297.624 175.887,297.716L175.609,299.341Z" style="fill:white;fill-rule:nonzero;"/>
                </g>
                <g transform="matrix(1,0,0,1,907.094,233.055)">
                    <path d="M177.746,299.704C177.73,299.796 177.644,299.857 177.552,299.842L176.832,299.72C176.741,299.704 176.679,299.617 176.694,299.525L176.971,297.9C176.986,297.809 177.073,297.747 177.165,297.763L177.885,297.885C177.977,297.9 178.038,297.987 178.022,298.079L177.746,299.704Z" style="fill:white;fill-rule:nonzero;"/>
                </g>
                <g transform="matrix(1,0,0,1,907.094,233.055)">
                    <path d="M179.151,299.943C179.136,300.035 179.049,300.097 178.957,300.081L178.238,299.959C178.146,299.943 178.085,299.856 178.101,299.765L178.377,298.14C178.393,298.048 178.479,297.986 178.571,298.002L179.29,298.124C179.382,298.14 179.443,298.227 179.428,298.318L179.151,299.943Z" style="fill:white;fill-rule:nonzero;"/>
                </g>
                <g transform="matrix(1,0,0,1,907.094,233.055)">
                    <path d="M180.558,300.183C180.542,300.274 180.455,300.336 180.363,300.32L179.644,300.198C179.552,300.183 179.49,300.096 179.506,300.004L179.782,298.379C179.798,298.287 179.885,298.226 179.977,298.241L180.696,298.363C180.788,298.379 180.85,298.466 180.834,298.558L180.558,300.183Z" style="fill:white;fill-rule:nonzero;"/>
                </g>
                <g transform="matrix(1,0,0,1,907.094,233.055)">
                    <path d="M181.963,300.422C181.947,300.514 181.86,300.575 181.769,300.56L181.049,300.438C180.958,300.422 180.896,300.335 180.911,300.243L181.188,298.617C181.203,298.526 181.29,298.464 181.382,298.479L182.102,298.603C182.193,298.618 182.255,298.705 182.239,298.797L181.963,300.422Z" style="fill:white;fill-rule:nonzero;"/>
                </g>
                <g transform="matrix(1,0,0,1,907.094,233.055)">
                    <path d="M183.368,300.661C183.353,300.753 183.266,300.814 183.174,300.799L182.455,300.676C182.363,300.661 182.302,300.573 182.317,300.482L182.594,298.856C182.609,298.765 182.696,298.703 182.788,298.719L183.507,298.842C183.599,298.856 183.66,298.944 183.645,299.035L183.368,300.661Z" style="fill:white;fill-rule:nonzero;"/>
                </g>
                <g transform="matrix(1,0,0,1,907.094,233.055)">
                    <path d="M184.774,300.9C184.759,300.991 184.672,301.054 184.58,301.038L183.86,300.915C183.769,300.899 183.707,300.813 183.723,300.721L183.999,299.096C184.015,299.004 184.102,298.942 184.193,298.958L184.913,299.08C185.005,299.096 185.066,299.183 185.051,299.274L184.774,300.9Z" style="fill:white;fill-rule:nonzero;"/>
                </g>
                <g transform="matrix(1,0,0,1,907.094,233.055)">
                    <path d="M186.18,301.139C186.164,301.23 186.077,301.292 185.985,301.276L185.266,301.154C185.175,301.139 185.112,301.052 185.128,300.96L185.404,299.335C185.42,299.243 185.508,299.182 185.599,299.197L186.318,299.319C186.41,299.335 186.472,299.422 186.456,299.514L186.18,301.139Z" style="fill:white;fill-rule:nonzero;"/>
                </g>
                <g transform="matrix(1,0,0,1,907.094,233.055)">
                    <path d="M187.585,301.378C187.569,301.47 187.482,301.531 187.391,301.516L186.672,301.394C186.58,301.378 186.519,301.291 186.534,301.199L186.811,299.574C186.826,299.482 186.913,299.421 187.005,299.437L187.724,299.559C187.815,299.574 187.877,299.661 187.861,299.753L187.585,301.378Z" style="fill:white;fill-rule:nonzero;"/>
                </g>
                <g transform="matrix(1,0,0,1,907.094,233.055)">
                    <rect x="112.728" y="323.777" width="3.841" height="1.473" style="fill:rgb(165,165,165);fill-rule:nonzero;"/>
                </g>
                <g transform="matrix(1,0,0,1,907.094,233.055)">
                    <rect x="68.805" y="323.777" width="3.841" height="1.473" style="fill:rgb(165,165,165);fill-rule:nonzero;"/>
                </g>
                <g transform="matrix(1,0,0,1,907.094,233.055)">
                    <path d="M113.653,328.229L71.47,328.229L71.47,304.794C71.47,303.048 72.885,301.633 74.63,301.633L110.493,301.633C112.238,301.633 113.653,303.048 113.653,304.794L113.653,328.229Z" style="fill:rgb(16,80,153);fill-rule:nonzero;"/>
                </g>
                <g transform="matrix(1,0,0,1,907.094,233.055)">
                    <rect x="71.47" y="321.579" width="42.183" height="6.65" style="fill:rgb(16,80,153);fill-rule:nonzero;"/>
                </g>
                <g transform="matrix(1,0,0,1,907.094,233.055)">
                    <rect x="32.801" y="307.608" width="3.204" height="8.533" style="fill:rgb(197,110,95);fill-rule:nonzero;"/>
                </g>
                <g transform="matrix(1,0,0,1,907.094,233.055)">
                    <path d="M67.39,301.633L42.867,301.633C40.881,301.633 39.273,303.245 39.278,305.23L39.3,314.514L36.304,314.716C31.154,315.062 27.154,319.341 27.154,324.502L27.154,327.411C27.154,327.862 27.52,328.229 27.971,328.229L68.553,328.229C69.005,328.229 69.371,327.862 69.371,327.411L69.371,303.613C69.371,302.52 68.484,301.633 67.39,301.633Z" style="fill:rgb(16,80,153);fill-rule:nonzero;"/>
                </g>
                <g transform="matrix(1,0,0,1,907.094,233.055)">
                    <path d="M27.6,321.579C27.311,322.504 27.154,323.485 27.154,324.502L27.154,327.411C27.154,327.862 27.52,328.229 27.971,328.229L68.553,328.229C69.005,328.229 69.371,327.862 69.371,327.411L69.371,321.579L27.6,321.579Z" style="fill:rgb(16,80,153);fill-rule:nonzero;"/>
                </g>
                <g transform="matrix(1,0,0,1,907.094,233.055)">
                    <path d="M46.085,328.892C46.085,331.932 43.622,334.396 40.582,334.396C37.542,334.396 35.077,331.932 35.077,328.892C35.077,325.852 37.542,323.387 40.582,323.387C43.622,323.387 46.085,325.852 46.085,328.892Z" style="fill:rgb(47,53,66);fill-rule:nonzero;"/>
                </g>
                <g transform="matrix(1,0,0,1,907.094,233.055)">
                    <path d="M44.046,328.892C44.046,330.806 42.496,332.356 40.582,332.356C38.668,332.356 37.116,330.806 37.116,328.892C37.116,326.978 38.668,325.426 40.582,325.426C42.496,325.426 44.046,326.978 44.046,328.892Z" style="fill:rgb(216,212,242);fill-rule:nonzero;"/>
                </g>
                <g transform="matrix(1,0,0,1,907.094,233.055)">
                    <path d="M66.962,328.892C66.962,331.932 64.499,334.396 61.459,334.396C58.418,334.396 55.954,331.932 55.954,328.892C55.954,325.852 58.418,323.387 61.459,323.387C64.499,323.387 66.962,325.852 66.962,328.892Z" style="fill:rgb(47,53,66);fill-rule:nonzero;"/>
                </g>
                <g transform="matrix(1,0,0,1,907.094,233.055)">
                    <path d="M64.923,329.077C64.923,330.991 63.372,332.543 61.459,332.543C59.544,332.543 57.993,330.991 57.993,329.077C57.993,327.163 59.544,325.611 61.459,325.611C63.372,325.611 64.923,327.163 64.923,329.077Z" style="fill:rgb(216,212,242);fill-rule:nonzero;"/>
                </g>
                <g transform="matrix(1,0,0,1,907.094,233.055)">
                    <path d="M40.582,314.931L49.798,314.931L49.798,302.954L42.894,302.954C41.617,302.954 40.582,303.989 40.582,305.267L40.582,314.931Z" style="fill:rgb(216,212,242);fill-rule:nonzero;"/>
                </g>
                <g transform="matrix(1,0,0,1,907.094,233.055)">
                    <rect x="50.729" y="302.954" width="6.664" height="11.977" style="fill:rgb(216,212,242);fill-rule:nonzero;"/>
                </g>
                <g transform="matrix(1,0,0,1,907.094,233.055)">
                    <path d="M42.587,328.892C42.587,329.999 41.689,330.897 40.582,330.897C39.473,330.897 38.576,329.999 38.576,328.892C38.576,327.783 39.473,326.886 40.582,326.886C41.689,326.886 42.587,327.783 42.587,328.892Z" style="fill:rgb(47,53,66);fill-rule:nonzero;"/>
                </g>
                <g transform="matrix(1,0,0,1,907.094,233.055)">
                    <path d="M63.463,329.077C63.463,330.185 62.566,331.083 61.459,331.083C60.35,331.083 59.453,330.185 59.453,329.077C59.453,327.969 60.35,327.071 61.459,327.071C62.566,327.071 63.463,327.969 63.463,329.077Z" style="fill:rgb(47,53,66);fill-rule:nonzero;"/>
                </g>
                <g transform="matrix(1,0,0,1,907.094,233.055)">
                    <rect x="40.582" y="328.043" width="21.471" height="2.068" style="fill:rgb(47,53,66);fill-rule:nonzero;"/>
                </g>
                <g transform="matrix(1,0,0,1,907.094,233.055)">
                    <path d="M31.144,307.274C31.271,309.553 32.681,311.348 34.403,311.348C36.126,311.348 37.535,309.553 37.663,307.274L31.144,307.274Z" style="fill:rgb(197,110,95);fill-rule:nonzero;"/>
                </g>
                <g transform="matrix(1,0,0,1,907.094,233.131)">
                    <rect x="30.618" y="306.197" width="7.571" height="1.077" style="fill:rgb(197,110,95);fill-rule:nonzero;"/>
                </g>
                <g transform="matrix(1,0,0,1,907.094,233.055)">
                    <path d="M34.434,331.912L23.903,331.912L26.682,324.514L34.434,324.514L34.434,331.912Z" style="fill:rgb(216,212,242);fill-rule:nonzero;"/>
                </g>
                <g transform="matrix(1,0,0,1,907.094,233.055)">
                    <rect x="23.377" y="331.912" width="11.057" height="1.23" style="fill:rgb(47,53,66);fill-rule:nonzero;"/>
                </g>
                <g transform="matrix(1,0,0,1,907.094,233.055)">
                    <path d="M33.027,330.897L33.709,330.897L33.709,325.426L33.188,325.426L33.027,330.897Z" style="fill:rgb(47,53,66);fill-rule:nonzero;"/>
                </g>
                <g transform="matrix(1,0,0,1,907.094,233.055)">
                    <path d="M31.71,330.897L32.391,330.897L32.702,325.426L32.181,325.426L31.71,330.897Z" style="fill:rgb(47,53,66);fill-rule:nonzero;"/>
                </g>
                <g transform="matrix(1,0,0,1,907.094,233.055)">
                    <path d="M30.391,330.897L31.074,330.897L31.695,325.426L31.174,325.426L30.391,330.897Z" style="fill:rgb(47,53,66);fill-rule:nonzero;"/>
                </g>
                <g transform="matrix(1,0,0,1,907.094,233.055)">
                    <path d="M29.074,330.897L29.755,330.897L30.688,325.426L30.168,325.426L29.074,330.897Z" style="fill:rgb(47,53,66);fill-rule:nonzero;"/>
                </g>
                <g transform="matrix(1,0,0,1,907.094,233.055)">
                    <path d="M27.756,330.897L28.438,330.897L29.681,325.426L29.161,325.426L27.756,330.897Z" style="fill:rgb(47,53,66);fill-rule:nonzero;"/>
                </g>
                <g transform="matrix(1,0,0,1,907.094,233.055)">
                    <path d="M26.438,330.897L27.12,330.897L28.674,325.426L28.154,325.426L26.438,330.897Z" style="fill:rgb(47,53,66);fill-rule:nonzero;"/>
                </g>
                <g transform="matrix(1,0,0,1,907.094,233.055)">
                    <path d="M25.121,330.897L25.802,330.897L27.668,325.426L27.147,325.426L25.121,330.897Z" style="fill:rgb(47,53,66);fill-rule:nonzero;"/>
                </g>
                <g transform="matrix(1,0,0,1,907.094,233.055)">
                    <path d="M87.627,328.892C87.627,331.932 85.164,334.396 82.124,334.396C79.084,334.396 76.619,331.932 76.619,328.892C76.619,325.852 79.084,323.387 82.124,323.387C85.164,323.387 87.627,325.852 87.627,328.892Z" style="fill:rgb(47,53,66);fill-rule:nonzero;"/>
                </g>
                <g transform="matrix(1,0,0,1,907.094,233.055)">
                    <path d="M85.588,328.892C85.588,330.806 84.037,332.356 82.124,332.356C80.21,332.356 78.658,330.806 78.658,328.892C78.658,326.978 80.21,325.426 82.124,325.426C84.037,325.426 85.588,326.978 85.588,328.892Z" style="fill:rgb(216,212,242);fill-rule:nonzero;"/>
                </g>
                <g transform="matrix(1,0,0,1,907.094,233.055)">
                    <path d="M108.505,328.892C108.505,331.932 106.041,334.396 103,334.396C99.96,334.396 97.496,331.932 97.496,328.892C97.496,325.852 99.96,323.387 103,323.387C106.041,323.387 108.505,325.852 108.505,328.892Z" style="fill:rgb(47,53,66);fill-rule:nonzero;"/>
                </g>
                <g transform="matrix(1,0,0,1,907.094,233.055)">
                    <path d="M106.466,329.077C106.466,330.991 104.914,332.543 103,332.543C101.087,332.543 99.535,330.991 99.535,329.077C99.535,327.163 101.087,325.611 103,325.611C104.914,325.611 106.466,327.163 106.466,329.077Z" style="fill:rgb(216,212,242);fill-rule:nonzero;"/>
                </g>
                <g transform="matrix(1,0,0,1,907.094,233.055)">
                    <path d="M84.129,328.892C84.129,329.999 83.231,330.897 82.124,330.897C81.015,330.897 80.118,329.999 80.118,328.892C80.118,327.783 81.015,326.886 82.124,326.886C83.231,326.886 84.129,327.783 84.129,328.892Z" style="fill:rgb(47,53,66);fill-rule:nonzero;"/>
                </g>
                <g transform="matrix(1,0,0,1,907.094,233.055)">
                    <path d="M105.006,329.077C105.006,330.185 104.108,331.083 103,331.083C101.893,331.083 100.995,330.185 100.995,329.077C100.995,327.969 101.893,327.071 103,327.071C104.108,327.071 105.006,327.969 105.006,329.077Z" style="fill:rgb(47,53,66);fill-rule:nonzero;"/>
                </g>
                <g transform="matrix(1,0,0,1,907.094,233.055)">
                    <rect x="82.124" y="328.043" width="21.472" height="2.068" style="fill:rgb(47,53,66);fill-rule:nonzero;"/>
                </g>
                <g transform="matrix(1,0,0,1,907.094,233.055)">
                    <path d="M73.846,314.931L82.544,314.931L82.544,304.329L76.029,304.329C74.824,304.329 73.846,305.246 73.846,306.376L73.846,314.931Z" style="fill:rgb(216,212,242);fill-rule:nonzero;"/>
                </g>
                <g transform="matrix(1,0,0,1,907.094,233.055)">
                    <rect x="83.422" y="304.329" width="8.659" height="10.602" style="fill:rgb(216,212,242);fill-rule:nonzero;"/>
                </g>
                <g transform="matrix(1,0,0,1,907.094,233.055)">
                    <path d="M111.213,314.931L102.516,314.931L102.516,304.329L109.03,304.329C110.236,304.329 111.213,305.246 111.213,306.376L111.213,314.931Z" style="fill:rgb(216,212,242);fill-rule:nonzero;"/>
                </g>
                <g transform="matrix(1,0,0,1,907.094,233.055)">
                    <rect x="92.848" y="304.329" width="8.92" height="10.602" style="fill:rgb(216,212,242);fill-rule:nonzero;"/>
                </g>
                <g transform="matrix(1,0,0,1,907.094,233.055)">
                    <path d="M157.576,328.229L115.393,328.229L115.393,304.794C115.393,303.048 116.809,301.633 118.554,301.633L154.415,301.633C156.161,301.633 157.576,303.048 157.576,304.794L157.576,328.229Z" style="fill:rgb(16,80,153);fill-rule:nonzero;"/>
                </g>
                <g transform="matrix(1,0,0,1,907.094,233.055)">
                    <rect x="115.393" y="321.579" width="42.183" height="6.65" style="fill:rgb(16,80,153);fill-rule:nonzero;"/>
                </g>
                <g transform="matrix(1,0,0,1,907.094,233.055)">
                    <path d="M131.551,328.892C131.551,331.932 129.086,334.396 126.046,334.396C123.006,334.396 120.542,331.932 120.542,328.892C120.542,325.852 123.006,323.387 126.046,323.387C129.086,323.387 131.551,325.852 131.551,328.892Z" style="fill:rgb(47,53,66);fill-rule:nonzero;"/>
                </g>
                <g transform="matrix(1,0,0,1,907.094,233.055)">
                    <path d="M129.511,328.892C129.511,330.806 127.96,332.356 126.046,332.356C124.132,332.356 122.581,330.806 122.581,328.892C122.581,326.978 124.132,325.426 126.046,325.426C127.96,325.426 129.511,326.978 129.511,328.892Z" style="fill:rgb(216,212,242);fill-rule:nonzero;"/>
                </g>
                <g transform="matrix(1,0,0,1,907.094,233.055)">
                    <path d="M152.428,328.892C152.428,331.932 149.963,334.396 146.923,334.396C143.883,334.396 141.419,331.932 141.419,328.892C141.419,325.852 143.883,323.387 146.923,323.387C149.963,323.387 152.428,325.852 152.428,328.892Z" style="fill:rgb(47,53,66);fill-rule:nonzero;"/>
                </g>
                <g transform="matrix(1,0,0,1,907.094,233.055)">
                    <path d="M150.389,329.077C150.389,330.991 148.837,332.543 146.923,332.543C145.009,332.543 143.458,330.991 143.458,329.077C143.458,327.163 145.009,325.611 146.923,325.611C148.837,325.611 150.389,327.163 150.389,329.077Z" style="fill:rgb(216,212,242);fill-rule:nonzero;"/>
                </g>
                <g transform="matrix(1,0,0,1,907.094,233.055)">
                    <path d="M128.052,328.892C128.052,329.999 127.154,330.897 126.046,330.897C124.938,330.897 124.04,329.999 124.04,328.892C124.04,327.783 124.938,326.886 126.046,326.886C127.154,326.886 128.052,327.783 128.052,328.892Z" style="fill:rgb(47,53,66);fill-rule:nonzero;"/>
                </g>
                <g transform="matrix(1,0,0,1,907.094,233.055)">
                    <path d="M148.929,329.077C148.929,330.185 148.031,331.083 146.923,331.083C145.815,331.083 144.917,330.185 144.917,329.077C144.917,327.969 145.815,327.071 146.923,327.071C148.031,327.071 148.929,327.969 148.929,329.077Z" style="fill:rgb(47,53,66);fill-rule:nonzero;"/>
                </g>
                <g transform="matrix(1,0,0,1,907.094,233.055)">
                    <rect x="126.046" y="328.043" width="21.472" height="2.068" style="fill:rgb(47,53,66);fill-rule:nonzero;"/>
                </g>
                <g transform="matrix(1,0,0,1,907.094,233.055)">
                    <path d="M117.77,314.931L126.467,314.931L126.467,304.329L119.952,304.329C118.747,304.329 117.77,305.246 117.77,306.376L117.77,314.931Z" style="fill:rgb(216,212,242);fill-rule:nonzero;"/>
                </g>
                <g transform="matrix(1,0,0,1,907.094,233.055)">
                    <rect x="127.346" y="304.329" width="8.657" height="10.602" style="fill:rgb(216,212,242);fill-rule:nonzero;"/>
                </g>
                <g transform="matrix(1,0,0,1,907.094,233.055)">
                    <path d="M155.136,314.931L146.438,314.931L146.438,304.329L152.953,304.329C154.158,304.329 155.136,305.246 155.136,306.376L155.136,314.931Z" style="fill:rgb(216,212,242);fill-rule:nonzero;"/>
                </g>
                <g transform="matrix(1,0,0,1,907.094,233.055)">
                    <rect x="136.771" y="304.329" width="8.919" height="10.602" style="fill:rgb(216,212,242);fill-rule:nonzero;"/>
                </g>
            </g>
        </g>
    </g>
</svg>
